<?xml version="1.0" encoding="UTF-8"?><svg id="Layer_2" xmlns="http://www.w3.org/2000/svg" viewBox="0 0 36.44 36.44"><g id="Layer_3"><path id="Path_1-2" d="m36.03,18.22c0,9.83-7.97,17.8-17.8,17.8C8.4,36.02.43,28.05.43,18.22c0-9.83,7.96-17.8,17.79-17.8,9.83,0,17.8,7.96,17.81,17.79h0Z" style="fill:#e1e1e1;"/><rect id="Rectangle_3-2" width="36.44" height="36.44" style="fill:none;"/><path id="Icon_ionic-md-arrow-round-back" d="m29.02,15.85h-15.89l6.16-5.9c.88-.94.88-2.41,0-3.36-.83-.89-2.22-.93-3.1-.1-.04.03-.07.07-.1.1l-10.26,9.95c-.44.44-.68,1.04-.67,1.66v.03c-.02.62.23,1.22.67,1.66l10.25,9.96c.83.89,2.22.93,3.1.1.04-.03.07-.07.1-.1.88-.94.88-2.41,0-3.36l-6.16-5.9h15.89c1.28-.03,2.3-1.09,2.27-2.38h0c.04-1.27-.95-2.33-2.22-2.38-.02,0-.03,0-.05,0Z" style="fill:#141414;"/></g></svg>