<?xml version="1.0" encoding="UTF-8"?><svg id="Layer_2" xmlns="http://www.w3.org/2000/svg" viewBox="0 0 36.44 36.44"><g id="Layer_3"><path id="Path_1-2" d="m36.03,18.22c0,9.83-7.97,17.8-17.8,17.8C8.4,36.02.43,28.05.43,18.22c0-9.83,7.96-17.8,17.79-17.8,9.83,0,17.8,7.96,17.81,17.79h0Z" style="fill:#e1e1e1;"/><rect id="Rectangle_3-2" width="36.44" height="36.44" style="fill:none;"/><path id="Icon_ionic-md-arrow-round-back" d="m27.68,16.14h-13.91l5.39-5.16c.77-.83.77-2.11,0-2.94-.72-.78-1.94-.82-2.72-.09-.03.03-.06.06-.09.09l-8.98,8.71c-.39.38-.6.91-.59,1.45v.03c-.01.55.2,1.07.59,1.46l8.98,8.72c.72.78,1.94.82,2.72.09.03-.03.06-.06.09-.09.77-.83.77-2.11,0-2.94l-5.39-5.16h13.91c1.12-.03,2.01-.96,1.99-2.08h0c.04-1.11-.83-2.04-1.94-2.08-.01,0-.03,0-.04,0Z" style="fill:#141414;"/></g></svg>