<?xml version="1.0" encoding="UTF-8"?><svg id="Layer_2" xmlns="http://www.w3.org/2000/svg" viewBox="0 0 290 68"><g id="Layer_3"><path id="Rectangle_5" d="m34,0h222c18.78,0,34,15.22,34,34h0c0,18.78-15.22,34-34,34H34C15.22,68,0,52.78,0,34H0C0,15.22,15.22,0,34,0Z" style="fill:#d60000;"/><path id="Rectangle_5-2" d="m256,1c18.2,0,33,14.8,33,33s-14.8,33-33,33H34C15.8,67,1,52.2,1,34S15.8,1,34,1h222m0-1H34C15.22,0,0,15.22,0,34s15.22,34,34,34h222c18.78,0,34-15.22,34-34S274.78,0,256,0h0Z" style="fill:#ededed;"/></g></svg>