<svg width="81" height="25" viewBox="0 0 81 25" fill="none" xmlns="http://www.w3.org/2000/svg">
<mask id="path-1-inside-1_1217_15974" fill="white">
<path d="M0 12.5C0 5.59644 5.59644 0 12.5 0H68.5C75.4036 0 81 5.59644 81 12.5V12.5C81 19.4036 75.4036 25 68.5 25H12.5C5.59644 25 0 19.4036 0 12.5V12.5Z"/>
</mask>
<path d="M0 12.5C0 5.59644 5.59644 0 12.5 0H68.5C75.4036 0 81 5.59644 81 12.5V12.5C81 19.4036 75.4036 25 68.5 25H12.5C5.59644 25 0 19.4036 0 12.5V12.5Z" fill="#5465FF"/>
<path d="M12.5 0V0.5H68.5V0V-0.5H12.5V0ZM68.5 25V24.5H12.5V25V25.5H68.5V25ZM12.5 25V24.5C5.87259 24.5 0.5 19.1274 0.5 12.5H0H-0.5C-0.5 19.6797 5.3203 25.5 12.5 25.5V25ZM81 12.5H80.5C80.5 19.1274 75.1274 24.5 68.5 24.5V25V25.5C75.6797 25.5 81.5 19.6797 81.5 12.5H81ZM68.5 0V0.5C75.1274 0.5 80.5 5.87258 80.5 12.5H81H81.5C81.5 5.3203 75.6797 -0.5 68.5 -0.5V0ZM12.5 0V-0.5C5.3203 -0.5 -0.5 5.3203 -0.5 12.5H0H0.5C0.5 5.87258 5.87258 0.5 12.5 0.5V0Z" fill="#E6E1E1" mask="url(#path-1-inside-1_1217_15974)"/>
</svg>
