<?xml version="1.0" encoding="UTF-8"?><svg id="Layer_2" xmlns="http://www.w3.org/2000/svg" viewBox="0 0 303 69"><g id="Layer_3"><path id="Rectangle_5" d="m34.5.5h234c18.78,0,34,15.22,34,34h0c0,18.78-15.22,34-34,34H34.5C15.72,68.5.5,53.28.5,34.5h0C.5,15.72,15.72.5,34.5.5Z" style="fill:#3624ff;"/><path d="m268.5,69H34.5C15.48,69,0,53.52,0,34.5S15.48,0,34.5,0h234c19.02,0,34.5,15.48,34.5,34.5s-15.48,34.5-34.5,34.5ZM34.5,1C16.03,1,1,16.03,1,34.5s15.03,33.5,33.5,33.5h234c18.47,0,33.5-15.03,33.5-33.5S286.97,1,268.5,1H34.5Z" style="fill:#d0d0d0;"/></g></svg>