<svg width="81" height="25" viewBox="0 0 81 25" fill="none" xmlns="http://www.w3.org/2000/svg">
<path d="M12.5 0.5H68.5C75.1274 0.500001 80.5 5.87258 80.5 12.5C80.5 19.1274 75.1274 24.5 68.5 24.5H12.5C5.87258 24.5 0.5 19.1274 0.5 12.5C0.5 5.97608 5.70608 0.668106 12.1904 0.503906L12.5 0.5Z" fill="#5465FF"/>
<path d="M12.5 0.5H68.5C75.1274 0.500001 80.5 5.87258 80.5 12.5C80.5 19.1274 75.1274 24.5 68.5 24.5H12.5C5.87258 24.5 0.5 19.1274 0.5 12.5C0.5 5.97608 5.70608 0.668106 12.1904 0.503906L12.5 0.5Z" stroke="#E6E1E1"/>
</svg>
