<?xml version="1.0" encoding="UTF-8"?><svg id="Layer_2" xmlns="http://www.w3.org/2000/svg" viewBox="0 0 290 68"><g id="Layer_3"><path id="Rectangle_5" d="m34,0h222c18.78,0,34,15.22,34,34h0c0,18.78-15.22,34-34,34H34C15.22,68,0,52.78,0,34H0C0,15.22,15.22,0,34,0Z" style="fill:#b20000;"/><path id="Rectangle_5-2" d="m256,2c17.64,0,32,14.36,32,32s-14.36,32-32,32H34c-17.64,0-32-14.36-32-32S16.36,2,34,2h222m0-2H34C15.22,0,0,15.22,0,34s15.22,34,34,34h222c18.78,0,34-15.22,34-34S274.78,0,256,0h0Z" style="fill:#ededed;"/></g></svg>