<?xml version="1.0" encoding="UTF-8"?><svg id="Layer_2" xmlns="http://www.w3.org/2000/svg" viewBox="0 0 77 29"><g id="Layer_2-2"><path d="m70,29H7c-3.86,0-7-3.14-7-7V7C0,3.14,3.14,0,7,0h63c3.86,0,7,3.14,7,7v15c0,3.86-3.14,7-7,7ZM7,1C3.69,1,1,3.69,1,7v15c0,3.31,2.69,6,6,6h63c3.31,0,6-2.69,6-6V7c0-3.31-2.69-6-6-6H7Z" style="fill:#e0e0e0; stroke-width:0px;"/><path id="Icon_awesome-chevron-down" d="m62.5,19.06l-5.08-5.08c-.24-.24-.25-.64,0-.89,0,0,0,0,0,0l.59-.59c.24-.24.64-.24.89,0l4.04,4.03,4.05-4.03c.24-.24.64-.24.89,0l.59.59c.24.24.25.64,0,.89,0,0,0,0,0,0l-5.08,5.08c-.24.25-.64.25-.89,0,0,0,0,0,0,0Z" style="fill:#e0e0e0; stroke-width:0px;"/></g></svg>