<?xml version="1.0" encoding="UTF-8"?><svg id="Layer_2" xmlns="http://www.w3.org/2000/svg" viewBox="0 0 34.25 34.25"><g id="Layer_3"><g id="Group_6"><path id="Icon_metro-warning" d="m17.13,3.1l14.35,28.6H2.77L17.13,3.1ZM17.13,0c-.9.09-1.68.66-2.04,1.49L.47,30.63c-1.12,1.99-.17,3.62,2.12,3.62h29.08c2.28,0,3.24-1.63,2.12-3.62h0L19.16,1.49c-.35-.83-1.13-1.4-2.03-1.49h0Zm2.14,27.83c0,1.18-.96,2.14-2.14,2.14-1.18,0-2.14-.96-2.14-2.14,0-1.18.96-2.14,2.14-2.14,1.18,0,2.14.96,2.14,2.14h0Zm-2.14-4.28c-1.18,0-2.14-.96-2.14-2.14h0v-6.42c-.03-1.18.91-2.16,2.09-2.19s2.16.91,2.19,2.09c0,.03,0,.06,0,.09v6.42c0,1.18-.96,2.14-2.14,2.14Z" style="fill:#ffa700;"/></g></g></svg>